<?xml version="1.0" standalone="no"?>
<!DOCTYPE svg PUBLIC "-//W3C//DTD SVG 20010904//EN"
 "http://www.w3.org/TR/2001/REC-SVG-20010904/DTD/svg10.dtd">
<svg version="1.0" xmlns="http://www.w3.org/2000/svg"
 width="1024.000000pt" height="1024.000000pt" viewBox="0 0 1024.000000 1024.000000"
 preserveAspectRatio="xMidYMid meet">
<metadata>
Created by potrace 1.16, written by Peter Selinger 2001-2019
</metadata>
<g transform="translate(0.000000,1024.000000) scale(0.100000,-0.100000)"
fill="#000000" stroke="none">
<path d="M6985 8964 c-446 -51 -767 -175 -1112 -430 -97 -71 -4442 -4408
-4542 -4534 -85 -106 -128 -174 -190 -298 -332 -663 -189 -1469 350 -1976 610
-574 1558 -608 2209 -81 90 73 3020 3007 3071 3074 98 133 169 283 216 459 24
87 26 116 27 282 1 148 -3 201 -18 265 -57 244 -168 446 -342 621 -236 236
-531 357 -874 357 -267 0 -470 -62 -695 -210 -91 -61 -200 -166 -1212 -1177
-612 -611 -1115 -1116 -1117 -1122 -2 -6 96 -111 218 -233 l222 -222 1075
1076 c590 592 1099 1095 1129 1119 131 101 213 129 375 130 147 1 231 -23 343
-97 253 -170 336 -491 200 -776 -29 -62 -133 -168 -1537 -1572 -1381 -1381
-1513 -1511 -1591 -1558 -106 -64 -217 -108 -340 -133 -128 -27 -355 -21 -475
12 -394 108 -685 424 -761 827 -22 119 -15 324 16 443 26 99 90 241 150 331
53 79 4345 4379 4465 4473 195 153 384 242 625 293 123 26 458 26 585 -1 294
-62 529 -190 746 -406 279 -278 420 -592 436 -975 15 -358 -81 -675 -288 -952
-37 -49 -730 -749 -1871 -1890 l-1813 -1813 225 -225 225 -225 1822 1823
c1003 1002 1848 1854 1879 1892 92 116 172 242 244 390 350 708 271 1563 -203
2194 -355 473 -888 776 -1479 840 -90 10 -322 13 -393 5z"/>
</g>
</svg>
